<svg width="241" height="183" viewBox="0 0 241 183" fill="none" xmlns="http://www.w3.org/2000/svg">
  <path d="M92.2135 178.652C174.677 191.732 240.126 140.677 240.125 80.4535C240.125 48.4041 170.524 51.7904 139.174 43.0984C99.9871 32.2334 84.9284 -1.50918 55.6885 0.0524547C-14.0607 3.77759 -10.8662 162.303 92.2135 178.652Z" fill="#1CF2FA" />
  <path d="M83.9342 180.101C166.398 193.18 231.846 142.125 231.846 81.9017C231.845 49.8524 162.245 53.2387 130.895 44.5466C91.7078 33.6816 76.6491 -0.0609347 47.4092 1.5007C-22.34 5.22583 -19.1455 163.751 83.9342 180.101Z" fill="#D0EDEE" />
  <path d="M89.7813 168.779C153.175 178.832 203.489 139.59 203.488 93.3015C203.488 68.668 149.983 71.2707 125.883 64.5899C95.7573 56.2389 84.1809 30.3039 61.7027 31.5042C8.08307 34.3674 10.5388 156.212 89.7813 168.779Z" fill="#E6FEFF" />
  <path d="M43.5688 98.4004C56.7751 79.4409 65.4017 52.977 45.3975 70.7717C48.7688 60.1521 56.108 55.5987 63.2702 59.2529C74.4343 64.949 72.4045 60.8131 67.44 57.5089C77.678 57.8521 80.5726 69.0391 76.0076 69.039C64.4896 68.0652 74.6998 77.4796 56.7751 95.9159C59.6517 88.0706 60.044 88.0707 61.2207 83.1021C58.7174 87.6436 50.7604 93.4318 43.5688 98.4004Z" fill="#1CF2FA" />
  <circle cx="67.2708" cy="50.7563" r="6.40699" transform="rotate(21.6512 67.2708 50.7563)" fill="#1CF2FA" />
  <path d="M40.2583 95.2949C53.4645 76.3355 62.0912 49.8715 42.0869 67.6662C45.4583 57.0467 52.7975 52.4932 59.9596 56.1475C71.1237 61.8436 69.094 57.7076 64.1295 54.4034C74.3674 54.7466 77.262 65.9337 72.697 65.9336C61.1791 64.9598 71.3893 74.3741 53.4645 92.8104C56.3411 84.9651 56.7334 84.9653 57.9102 79.9966C55.4069 84.5382 47.4498 90.3264 40.2583 95.2949Z" fill="#1BBCC2" />
  <circle cx="63.9602" cy="47.6509" r="6.40699" transform="rotate(21.6512 63.9602 47.6509)" fill="#4057A5" />
  <path d="M180.698 134.967C162.114 129.909 171.469 109.264 160.891 122.012C160.268 113.202 165.666 112.929 172.012 109.397C182.057 103.807 177.604 95.2566 172.012 95.1115C196.761 93.3517 165.384 115.919 188.787 134.967C183.146 134.552 176.274 128.645 173.543 125.743C174.124 128.976 178.555 133.239 180.698 134.967Z" fill="#1CF2FA" />
  <circle cx="171.296" cy="100.915" r="5.07163" fill="#1CF2FA" />
  <path d="M173.147 79.8516C171.564 81.0473 171.535 81.8817 171.535 83.3275C171.535 83.8559 171.247 84.4674 169.837 84.4674C168.657 84.4674 168.254 84.0502 168.254 82.6044C168.254 80.2134 169.348 79.0731 170.182 78.3781C171.132 77.5996 172.743 76.7375 172.743 75.2359C172.743 73.9567 171.592 73.3447 170.153 73.3447C167.218 73.3447 167.851 75.486 166.297 75.486C165.52 75.486 164.57 74.9853 164.57 73.9008C164.57 72.3996 166.355 70.1748 170.24 70.1748C173.924 70.1748 176.37 72.149 176.37 74.7629C176.37 77.3767 173.924 79.2678 173.147 79.8516ZM172.082 88.5275C172.082 89.6674 171.103 90.6683 169.866 90.6683C168.628 90.6683 167.679 89.6674 167.679 88.5275C167.679 87.3595 168.657 86.3862 169.866 86.3862C171.075 86.3862 172.082 87.3595 172.082 88.5275Z" fill="#1CF2FA" />
  <path d="M177.388 131.863C158.804 126.805 168.158 106.16 157.58 118.908C156.958 110.099 162.355 109.825 168.701 106.294C178.746 100.704 174.293 92.1531 168.701 92.008C193.45 90.2482 162.074 112.815 185.477 131.863C179.835 131.449 172.963 125.541 170.232 122.639C170.813 125.873 175.245 130.136 177.388 131.863Z" fill="#4157A6" />
  <circle cx="167.986" cy="97.8099" r="5.07163" fill="#1BBCC2" />
  <path d="M169.836 76.7462C168.253 77.9419 168.225 78.7762 168.225 80.222C168.225 80.7504 167.937 81.3619 166.527 81.3619C165.346 81.3619 164.944 80.9447 164.944 79.4989C164.944 77.108 166.037 75.9676 166.872 75.2726C167.821 74.4941 169.433 73.6321 169.433 72.1304C169.433 70.8512 168.282 70.2393 166.843 70.2393C163.907 70.2393 164.541 72.3805 162.986 72.3805C162.209 72.3805 161.26 71.8798 161.26 70.7953C161.26 69.2941 163.044 67.0693 166.929 67.0693C170.613 67.0693 173.059 69.0436 173.059 71.6574C173.059 74.2712 170.613 76.1624 169.836 76.7462ZM168.771 85.422C168.771 86.5619 167.793 87.5628 166.555 87.5628C165.318 87.5628 164.368 86.5619 164.368 85.422C164.368 84.254 165.346 83.2807 166.555 83.2807C167.764 83.2807 168.771 84.254 168.771 85.422Z" fill="#1BBCC2" />
  <g clip-path="url(#clip0)">
    <path d="M152.077 156.71C154.058 158.689 154.058 161.9 152.077 163.879C151.087 164.869 149.791 165.365 148.493 165.365C147.195 165.365 145.899 164.869 144.908 163.879L128.588 147.559C131.253 145.463 133.661 143.055 135.757 140.39L152.077 156.71Z" fill="#1CF2FA" />
    <path d="M128.519 133.154L135.754 140.389C133.658 143.054 131.25 145.463 128.585 147.558L121.35 140.323V140.322C124.099 138.326 126.521 135.904 128.517 133.154H128.519Z" fill="#1CF2FA" />
    <path d="M134.63 114.327C134.63 121.354 132.361 127.862 128.516 133.155C126.52 135.905 124.098 138.327 121.349 140.322C116.055 144.167 109.547 146.437 102.52 146.437C84.8141 146.437 70.4102 132.033 70.4102 114.327C70.4102 96.6207 84.8141 82.2168 102.52 82.2168C120.226 82.2168 134.63 96.6207 134.63 114.327Z" fill="#1CF2FA" />
    <path d="M102.524 88.9756C116.502 88.9756 127.874 100.348 127.874 114.326C127.874 128.304 116.502 139.676 102.524 139.676C88.5459 139.676 77.1738 128.304 77.1738 114.326C77.1738 100.348 88.5459 88.9756 102.524 88.9756Z" fill="#1CF2FA" />
    <path d="M153.27 155.515L130.712 132.957C134.387 127.421 136.323 121.011 136.323 114.326C136.323 95.6891 121.16 80.5264 102.523 80.5264C83.8854 80.5264 68.7227 95.6891 68.7227 114.326C68.7227 132.964 83.8854 148.126 102.523 148.126C109.208 148.126 115.618 146.191 121.153 142.516L127.388 148.751C127.389 148.752 127.39 148.753 127.391 148.754L143.711 165.074C144.988 166.351 146.686 167.055 148.491 167.055C150.296 167.055 151.993 166.351 153.27 165.075C154.547 163.798 155.251 162.101 155.251 160.295C155.251 158.488 154.547 156.791 153.27 155.515ZM123.904 140.486C125.653 139.056 127.252 137.457 128.683 135.708L133.477 140.502C132.019 142.223 130.42 143.823 128.699 145.281L123.904 140.486ZM72.1027 114.326C72.1027 97.5528 85.7491 83.9064 102.523 83.9064C119.296 83.9064 132.943 97.5528 132.943 114.326C132.943 120.778 130.94 126.945 127.151 132.162C125.255 134.773 122.97 137.059 120.358 138.954C120.358 138.954 120.358 138.954 120.358 138.955C115.141 142.744 108.974 144.746 102.523 144.746C85.7491 144.746 72.1027 131.1 72.1027 114.326ZM150.88 162.684C150.241 163.323 149.393 163.675 148.491 163.675C147.589 163.675 146.74 163.323 146.101 162.684L131.095 147.678C132.806 146.209 134.405 144.61 135.874 142.899L150.881 157.906C151.519 158.543 151.871 159.392 151.871 160.295C151.871 161.197 151.519 162.046 150.88 162.684Z" fill="#1CF2FA" />
    <path d="M129.563 114.326C129.563 99.4161 117.433 87.2861 102.522 87.2861C87.6124 87.2861 75.4824 99.4161 75.4824 114.326C75.4824 129.236 87.6124 141.366 102.522 141.366C117.433 141.366 129.563 129.236 129.563 114.326ZM102.522 137.986C89.4763 137.986 78.8624 127.372 78.8624 114.326C78.8624 101.28 89.4763 90.6661 102.522 90.6661C115.569 90.6661 126.183 101.28 126.183 114.326C126.183 127.372 115.569 137.986 102.522 137.986Z" fill="#1CF2FA" />
    <path d="M120.49 109.256C121.361 108.921 121.796 107.944 121.461 107.072C120.006 103.285 117.472 100.046 114.133 97.7074C110.715 95.3127 106.7 94.0469 102.522 94.0469C101.589 94.0469 100.832 94.8037 100.832 95.7369C100.832 96.6701 101.589 97.4269 102.522 97.4269C109.468 97.4269 115.811 101.79 118.306 108.285C118.564 108.957 119.205 109.369 119.884 109.369C120.085 109.369 120.29 109.333 120.49 109.256Z" fill="#1CF2FA" />
    <path d="M121.112 112.637C120.179 112.637 119.422 113.394 119.422 114.327C119.422 115.26 120.179 116.017 121.112 116.017C122.045 116.017 122.802 115.26 122.802 114.327C122.802 113.394 122.045 112.637 121.112 112.637Z" fill="#1CF2FA" />
  </g>
  <g clip-path="url(#clip1)">
    <path d="M147.319 154.639C149.3 156.618 149.3 159.829 147.319 161.808C146.329 162.798 145.033 163.293 143.735 163.293C142.437 163.293 141.141 162.798 140.15 161.808L123.83 145.487C126.495 143.392 128.903 140.983 130.999 138.318L147.319 154.639Z" fill="#1BBCC2" />
    <path d="M123.761 131.083L130.996 138.318C128.9 140.983 126.492 143.391 123.827 145.487L116.592 138.252V138.25C119.341 136.254 121.763 133.833 123.759 131.083H123.761Z" fill="white" />
    <path d="M129.872 112.256C129.872 119.283 127.603 125.791 123.758 131.084C121.762 133.834 119.34 136.255 116.591 138.251C111.298 142.096 104.789 144.366 97.7624 144.366C80.0562 144.366 65.6523 129.962 65.6523 112.256C65.6523 94.5494 80.0562 80.1455 97.7624 80.1455C115.469 80.1455 129.872 94.5494 129.872 112.256Z" fill="#1BBCC2" />
    <path d="M97.7661 86.9043C111.744 86.9043 123.116 98.2763 123.116 112.254C123.116 126.232 111.744 137.604 97.7661 137.604C83.788 137.604 72.416 126.232 72.416 112.254C72.416 98.2763 83.788 86.9043 97.7661 86.9043Z" fill="white" />
    <path d="M148.512 153.444L125.954 130.886C129.629 125.35 131.565 118.94 131.565 112.255C131.565 93.6178 116.402 78.4551 97.7649 78.4551C79.1275 78.4551 63.9648 93.6178 63.9648 112.255C63.9648 130.892 79.1275 146.055 97.7649 146.055C104.45 146.055 110.86 144.119 116.395 140.445L122.631 146.68C122.631 146.681 122.632 146.682 122.633 146.683L138.953 163.003C140.231 164.28 141.928 164.983 143.733 164.983C145.538 164.983 147.235 164.28 148.512 163.003C149.789 161.727 150.493 160.029 150.493 158.223C150.493 156.417 149.789 154.72 148.512 153.444ZM119.146 138.415C120.895 136.984 122.494 135.385 123.925 133.636L128.72 138.431C127.262 140.152 125.662 141.752 123.941 143.21L119.146 138.415ZM67.3448 112.255C67.3448 95.4815 80.9913 81.8351 97.7649 81.8351C114.539 81.8351 128.185 95.4815 128.185 112.255C128.185 118.707 126.182 124.874 122.393 130.091C120.497 132.702 118.212 134.988 115.601 136.883C115.601 136.883 115.6 136.883 115.6 136.883C110.384 140.672 104.216 142.675 97.7649 142.675C80.9913 142.675 67.3448 129.029 67.3448 112.255ZM146.122 160.613C145.484 161.252 144.635 161.603 143.733 161.603C142.831 161.603 141.982 161.252 141.343 160.613L126.337 145.606C128.049 144.138 129.647 142.539 131.116 140.828L146.123 155.834C146.761 156.472 147.113 157.32 147.113 158.223C147.113 159.126 146.761 159.974 146.122 160.613Z" fill="#5D7CE2" />
    <path d="M124.805 112.255C124.805 97.3448 112.675 85.2148 97.7647 85.2148C82.8546 85.2148 70.7246 97.3448 70.7246 112.255C70.7246 127.165 82.8546 139.295 97.7647 139.295C112.675 139.295 124.805 127.165 124.805 112.255ZM97.7647 135.915C84.7185 135.915 74.1046 125.301 74.1046 112.255C74.1046 99.2087 84.7185 88.5948 97.7647 88.5948C110.811 88.5948 121.425 99.2087 121.425 112.255C121.425 125.301 110.811 135.915 97.7647 135.915Z" fill="#5D7CE2" />
    <path d="M115.732 107.185C116.603 106.85 117.038 105.872 116.703 105.001C115.248 101.213 112.714 97.9749 109.375 95.6361C105.957 93.2414 101.942 91.9756 97.7642 91.9756C96.831 91.9756 96.0742 92.7324 96.0742 93.6656C96.0742 94.5988 96.831 95.3556 97.7642 95.3556C104.71 95.3556 111.053 99.7188 113.548 106.213C113.806 106.885 114.447 107.298 115.126 107.298C115.328 107.298 115.533 107.261 115.732 107.185Z" fill="#5D7CE2" />
    <path d="M116.354 110.565C115.421 110.565 114.664 111.323 114.664 112.255C114.664 113.188 115.421 113.945 116.354 113.945C117.287 113.945 118.044 113.188 118.044 112.255C118.044 111.323 117.287 110.565 116.354 110.565Z" fill="#5D7CE2" />
  </g>
  <defs>
    <clipPath id="clip0">
      <rect width="86.5281" height="86.5281" fill="white" transform="translate(68.7227 80.5264)" />
    </clipPath>
    <clipPath id="clip1">
      <rect width="86.5281" height="86.5281" fill="white" transform="translate(63.9648 78.4551)" />
    </clipPath>
  </defs>
</svg>  