<svg width="29" height="33" viewBox="0 0 29 33" fill="none" xmlns="http://www.w3.org/2000/svg">
<circle cx="21.7664" cy="23.1697" r="6.31915" fill="#1BBCC2"/>
<path fill-rule="evenodd" clip-rule="evenodd" d="M2 0C0.895431 0 0 0.895431 0 2V31C0 32.1046 0.895432 33 2 33H19.766C20.8705 33 21.766 32.1046 21.766 31V30.8936C17.5006 30.8934 14.043 27.4356 14.043 23.1702C14.043 18.9048 17.5006 15.447 21.766 15.4468V2C21.766 0.895431 20.8705 0 19.766 0H2ZM4.1068 2.10638C3.00223 2.10638 2.1068 3.00181 2.1068 4.10638V6.42553C2.1068 7.5301 3.00223 8.42553 4.1068 8.42553H17.66C18.7646 8.42553 19.66 7.5301 19.66 6.42553V4.10638C19.66 3.00181 18.7646 2.10638 17.66 2.10638H4.1068ZM2.1068 12.5319C2.1068 11.4273 3.00223 10.5319 4.1068 10.5319H5.02169C6.12626 10.5319 7.02169 11.4273 7.02169 12.5319V13.4468C7.02169 14.5514 6.12626 15.4468 5.02169 15.4468H4.1068C3.00223 15.4468 2.1068 14.5514 2.1068 13.4468V12.5319ZM16.7451 10.5319C15.6405 10.5319 14.7451 11.4273 14.7451 12.5319V13.4468C14.7451 14.5514 15.6405 15.4468 16.7451 15.4468H17.66C18.7646 15.4468 19.66 14.5514 19.66 13.4468V12.5319C19.66 11.4273 18.7646 10.5319 17.66 10.5319H16.7451ZM8.42595 12.5319C8.42595 11.4273 9.32138 10.5319 10.4259 10.5319H11.3408C12.4454 10.5319 13.3408 11.4273 13.3408 12.5319V13.4468C13.3408 14.5514 12.4454 15.4468 11.3408 15.4468H10.4259C9.32138 15.4468 8.42595 14.5514 8.42595 13.4468V12.5319ZM4.1068 23.1702C3.00223 23.1702 2.1068 24.0656 2.1068 25.1702V26.0851C2.1068 27.1897 3.00223 28.0851 4.1068 28.0851H5.02169C6.12626 28.0851 7.02169 27.1897 7.02169 26.0851V25.1702C7.02169 24.0656 6.12626 23.1702 5.02169 23.1702H4.1068ZM8.42595 25.1702C8.42595 24.0656 9.32138 23.1702 10.4259 23.1702H11.3408C12.4454 23.1702 13.3408 24.0656 13.3408 25.1702V26.0851C13.3408 27.1897 12.4454 28.0851 11.3408 28.0851H10.4259C9.32138 28.0851 8.42595 27.1897 8.42595 26.0851V25.1702ZM4.1068 16.8511C3.00223 16.8511 2.1068 17.7465 2.1068 18.8511V19.766C2.1068 20.8705 3.00223 21.766 4.1068 21.766H5.02169C6.12626 21.766 7.02169 20.8705 7.02169 19.766V18.8511C7.02169 17.7465 6.12626 16.8511 5.02169 16.8511H4.1068ZM8.42595 18.8511C8.42595 17.7465 9.32138 16.8511 10.4259 16.8511H11.3408C12.4454 16.8511 13.3408 17.7465 13.3408 18.8511V19.766C13.3408 20.8705 12.4454 21.766 11.3408 21.766H10.4259C9.32138 21.766 8.42595 20.8705 8.42595 19.766V18.8511Z" fill="#4156A5"/>
<path d="M18.6367 23.957V20.3779H20.48C20.8218 20.3779 21.083 20.4072 21.2637 20.4658C21.4443 20.5244 21.59 20.6335 21.7007 20.793C21.8114 20.9508 21.8667 21.1437 21.8667 21.3716C21.8667 21.5701 21.8244 21.7419 21.7397 21.8867C21.6551 22.0299 21.5387 22.1463 21.3906 22.2358C21.2962 22.2928 21.1668 22.34 21.0024 22.3774C21.1343 22.4214 21.2303 22.4653 21.2905 22.5093C21.3312 22.5386 21.3898 22.6012 21.4663 22.6973C21.5444 22.7933 21.5965 22.8674 21.6226 22.9194L22.1572 23.957H20.9072L20.3164 22.8633C20.2415 22.7217 20.1748 22.6297 20.1162 22.5874C20.0365 22.5321 19.9461 22.5044 19.8452 22.5044H19.7476V23.957H18.6367ZM19.7476 21.8281H20.2139C20.2643 21.8281 20.362 21.8118 20.5068 21.7793C20.5801 21.7646 20.6395 21.7272 20.6851 21.667C20.7323 21.6068 20.7559 21.5376 20.7559 21.4595C20.7559 21.3439 20.7192 21.2552 20.646 21.1934C20.5728 21.1315 20.4352 21.1006 20.2334 21.1006H19.7476V21.8281ZM22.4526 24.9434V21.3643H23.3828V21.7476C23.5114 21.5864 23.6294 21.4774 23.7368 21.4204C23.8817 21.3439 24.042 21.3057 24.2178 21.3057C24.5645 21.3057 24.8322 21.4383 25.021 21.7036C25.2114 21.9689 25.3066 22.2969 25.3066 22.6875C25.3066 23.1188 25.2033 23.4484 24.9966 23.6763C24.7899 23.9025 24.5286 24.0156 24.2129 24.0156C24.0599 24.0156 23.9199 23.9896 23.793 23.9375C23.6676 23.8854 23.5553 23.8081 23.4561 23.7056V24.9434H22.4526ZM23.4487 22.668C23.4487 22.873 23.4919 23.0252 23.5781 23.1245C23.6644 23.2238 23.7734 23.2734 23.9053 23.2734C24.0208 23.2734 24.1177 23.2262 24.1958 23.1318C24.2739 23.0358 24.313 22.8739 24.313 22.646C24.313 22.436 24.2723 22.2822 24.1909 22.1846C24.1095 22.0853 24.0103 22.0356 23.8931 22.0356C23.7661 22.0356 23.6603 22.0853 23.5757 22.1846C23.491 22.2839 23.4487 22.445 23.4487 22.668Z" fill="white"/>
</svg>
