<svg width="40" height="40" viewBox="0 0 30 30" fill="none" xmlns="http://www.w3.org/2000/svg">
  <circle cx="15" cy="15" r="15" fill="#ECECEC" />
  <path d="M23.6357 15H20.4538C18.9499 15 17.7266 16.2234 17.7266 17.7273C17.7266 19.2312 18.9499 20.4545 20.4538 20.4545H23.6357C24.3876 20.4545 24.9993 19.8429 24.9993 19.0909V16.3636C24.9993 15.6117 24.3876 15 23.6357 15ZM20.4539 18.6364C19.9527 18.6364 19.5448 18.2284 19.5448 17.7273C19.5448 17.2261 19.9527 16.8182 20.4539 16.8182C20.955 16.8182 21.363 17.2261 21.363 17.7273C21.363 18.2284 20.955 18.6364 20.4539 18.6364Z" fill="#1BBCC2" />
  <path d="M23.6364 21.3636H20.4545C18.4495 21.3636 16.8182 19.7285 16.8182 17.722C16.8182 15.7155 18.4495 14.083 20.4545 14.083H23.6364C23.8876 14.083 24.0909 13.8795 24.0909 13.6281V12.2635C24.0909 11.3096 23.3516 10.5444 22.4174 10.4692L21.0964 7.85197L19.9774 5.89567C19.4976 5.05831 18.3421 4.74339 17.5093 5.23021L15.4545 6.42693L8.38987 10.4545H6.8182C5.81541 10.4545 5 11.26 5 12.2635V23.1805C5 24.184 5.81541 25 6.8182 25H22.2728C23.2755 25 24.091 24.184 24.091 23.1805V21.8185C24.0909 21.5671 23.8876 21.3636 23.6364 21.3636ZM17.967 6.01648C18.3816 5.77302 18.9511 5.93295 19.1881 6.34784L20.0742 7.89638C18.7567 8.48142 17.2 8.06385 16.3335 6.96753L17.967 6.01648ZM15.5416 7.42908L15.5453 7.42597C16.3162 8.46685 17.5036 9.07933 18.8068 9.07933C19.3969 9.07933 19.9819 8.93994 20.5255 8.68341L20.5274 8.68886L21.3614 10.4545H10.1967L15.5416 7.42908Z" fill="#4156A5" />
</svg>
