<svg width="20" height="20" viewBox="0 0 20 20" fill="none" xmlns="http://www.w3.org/2000/svg">
  <path d="M18.6357 10H15.4538C13.9499 10 12.7266 11.2234 12.7266 12.7273C12.7266 14.2312 13.9499 15.4545 15.4538 15.4545H18.6357C19.3876 15.4545 19.9993 14.8429 19.9993 14.0909V11.3636C19.9993 10.6117 19.3876 10 18.6357 10ZM15.4539 13.6364C14.9527 13.6364 14.5448 13.2284 14.5448 12.7273C14.5448 12.2261 14.9527 11.8182 15.4539 11.8182C15.955 11.8182 16.363 12.2261 16.363 12.7273C16.363 13.2284 15.955 13.6364 15.4539 13.6364Z" fill="#1BBCC2" />
  <path d="M18.6364 16.3636H15.4545C13.4495 16.3636 11.8182 14.7285 11.8182 12.722C11.8182 10.7155 13.4495 9.08299 15.4545 9.08299H18.6364C18.8876 9.08299 19.0909 8.87955 19.0909 8.62813V7.26347C19.0909 6.30956 18.3516 5.54439 17.4174 5.46918L16.0964 2.85197L14.9774 0.895666C14.4976 0.0583071 13.3421 -0.256608 12.5093 0.230211L10.4545 1.42693L3.38987 5.45452H1.8182C0.815413 5.45452 0 6.25996 0 7.26347V18.1805C0 19.184 0.815413 20 1.8182 20H17.2728C18.2755 20 19.091 19.184 19.091 18.1805V16.8185C19.0909 16.5671 18.8876 16.3636 18.6364 16.3636ZM12.967 1.01648C13.3816 0.773024 13.9511 0.932953 14.1881 1.34784L15.0742 2.89638C13.7567 3.48142 12.2 3.06385 11.3335 1.96753L12.967 1.01648ZM10.5416 2.42908L10.5453 2.42597C11.3162 3.46685 12.5036 4.07933 13.8068 4.07933C14.3969 4.07933 14.9819 3.93994 15.5255 3.68341L15.5274 3.68886L16.3614 5.45452H5.19665L10.5416 2.42908Z" fill="#4156A5" />
</svg>
