<svg width="23" height="23" viewBox="0 0 20 20" fill="none" xmlns="http://www.w3.org/2000/svg">
  <path d="M10.6749 9.69499C9.9685 10.2472 9.95571 10.6326 9.95571 11.3004C9.95571 11.5444 9.82719 11.8268 9.19799 11.8268C8.67131 11.8268 8.49163 11.6342 8.49163 10.9664C8.49163 9.86209 8.97952 9.33541 9.35209 9.01442C9.77582 8.65484 10.495 8.25669 10.495 7.56313C10.495 6.97229 9.98129 6.68967 9.33909 6.68967C8.02911 6.68967 8.31174 7.67865 7.61817 7.67865C7.27139 7.67865 6.84766 7.44739 6.84766 6.94651C6.84766 6.25315 7.64396 5.22559 9.37767 5.22559C11.0216 5.22559 12.1131 6.13741 12.1131 7.34466C12.1131 8.5519 11.0216 9.42536 10.6749 9.69499ZM10.1998 13.7021C10.1998 14.2285 9.76303 14.6909 9.21078 14.6909C8.65852 14.6909 8.23479 14.2285 8.23479 13.7021C8.23479 13.1626 8.67131 12.7131 9.21078 12.7131C9.75024 12.7131 10.1998 13.1626 10.1998 13.7021Z" fill="#1CAEB4" />
  <path d="M9.50028 19.0006H0.805108C0.360621 19.0006 0 18.6401 0 18.1954V9.50028C0 4.26183 4.26183 0 9.50028 0C14.7389 0 19.0006 4.26183 19.0006 9.50028C19.0006 14.7387 14.7389 19.0006 9.50028 19.0006ZM1.61022 17.3903H9.50028C13.851 17.3903 17.3903 13.8508 17.3903 9.50028C17.3903 5.14976 13.851 1.61022 9.50028 1.61022C5.14976 1.61022 1.61022 5.14976 1.61022 9.50028V17.3903Z" fill="#4156A5" />
</svg>
