<svg width="23" height="23" viewBox="0 0 20 20" fill="none" xmlns="http://www.w3.org/2000/svg">
  <path d="M17.8568 0H8.57072C7.3872 0 6.42778 0.959428 6.42778 2.14295V6.42883C6.42778 6.82335 6.74759 7.14316 7.1421 7.14316C7.53662 7.14316 7.85643 6.82335 7.85643 6.42883V2.14295C7.85643 1.74843 8.17624 1.42862 8.57076 1.42862H17.8569C18.2514 1.42862 18.5712 1.74843 18.5712 2.14295V17.8579C18.5712 18.2524 18.2514 18.5722 17.8569 18.5722H8.57072C8.1762 18.5722 7.85639 18.2524 7.85639 17.8579V13.572C7.85639 13.1775 7.53658 12.8577 7.14206 12.8577C6.74754 12.8577 6.42773 13.1775 6.42773 13.572V17.8579C6.42773 19.0414 7.38716 20.0008 8.57068 20.0008H17.8568C19.0403 20.0008 19.9997 19.0414 19.9997 17.8579V2.14295C19.9998 0.959428 19.0403 0 17.8568 0Z" fill="#4156A5" />
  <path d="M14.2854 9.28642H2.43783L4.79009 6.93416C5.06415 6.65038 5.05628 6.19819 4.77251 5.92413C4.49569 5.6568 4.05684 5.6568 3.78006 5.92413L0.208456 9.49569C0.142117 9.56207 0.089673 9.64096 0.0541805 9.72785C-0.0180602 9.9026 -0.0180602 10.0989 0.0541805 10.2736C0.0898405 10.3608 0.142535 10.4399 0.209167 10.5065L3.78073 14.078C4.05479 14.3618 4.50699 14.3697 4.79076 14.0956C5.07453 13.8215 5.0824 13.3694 4.80834 13.0856C4.8026 13.0796 4.79674 13.0738 4.79076 13.068L2.43783 10.715H14.2855C14.68 10.715 14.9998 10.3952 14.9998 10.0007C14.9998 9.60618 14.6799 9.28642 14.2854 9.28642Z" fill="#1CAEB4" />
</svg>
