<svg width="26" height="26" viewBox="0 0 26 26" fill="none" xmlns="http://www.w3.org/2000/svg">
  <path d="M14.6082 13.2662C13.6416 14.0219 13.6241 14.5492 13.6241 15.463C13.6241 15.797 13.4482 16.1834 12.5872 16.1834C11.8665 16.1834 11.6207 15.9198 11.6207 15.006C11.6207 13.4949 12.2883 12.7742 12.7981 12.335C13.3779 11.8429 14.362 11.2981 14.362 10.349C14.362 9.54055 13.6591 9.15381 12.7803 9.15381C10.9878 9.15381 11.3745 10.5071 10.4255 10.5071C9.95092 10.5071 9.37109 10.1907 9.37109 9.50526C9.37109 8.55649 10.4607 7.15039 12.8331 7.15039C15.0827 7.15039 16.5763 8.39812 16.5763 10.0501C16.5763 11.7021 15.0827 12.8973 14.6082 13.2662ZM13.958 18.7495C13.958 19.4699 13.3604 20.1025 12.6047 20.1025C11.849 20.1025 11.2692 19.4699 11.2692 18.7495C11.2692 18.0113 11.8665 17.3962 12.6047 17.3962C13.3429 17.3962 13.958 18.0113 13.958 18.7495Z" fill="#1CAEB4" />
  <path d="M13 26H1.10169C0.493468 26 0 25.5068 0 24.8983V13C0 5.83181 5.83181 0 13 0C20.1685 0 26 5.83181 26 13C26 20.1682 20.1685 26 13 26ZM2.20339 23.7966H13C18.9535 23.7966 23.7966 18.9532 23.7966 13C23.7966 7.04683 18.9535 2.20339 13 2.20339C7.04683 2.20339 2.20339 7.04683 2.20339 13V23.7966Z" fill="#4156A5" />
</svg>
