<svg width="47" height="32" viewBox="0 0 47 32" fill="none" xmlns="http://www.w3.org/2000/svg">
  <path d="M17.8956 31.333C4.45239 27.7502 0 12.6344 0 2.02148C2.02153 6.56992 4.54843 9.79658 8.59148 10.1076C16.8424 10.7423 20.5289 8.55372 24.9769 15.7388C19.5025 11.4497 7.2885 18.8437 24.9769 31.4777C20.8959 31.184 14.6948 26.8545 12.7194 24.7989C13.1395 27.0895 16.3452 30.1094 17.8956 31.333Z" fill="white" />
  <circle cx="11.6251" cy="4.04305" r="4.04305" fill="white" />
  <circle cx="37.9029" cy="4.54841" r="3.53767" fill="white" />
  <path d="M31.8386 31.3341C43.4623 26.7857 47.002 11.1188 47 1.5166C44.9785 6.06503 43.118 11.1188 38.4085 11.1188C31.8386 11.1188 29.0826 8.89619 24.9769 15.7392C31.8386 10.7771 42.7686 19.5028 24.9769 31.478C29.0578 31.1843 35.4223 26.3145 37.3977 24.2588C36.9776 26.5494 33.3889 30.1105 31.8386 31.3341Z" fill="white" />
</svg>
