<svg width="217" height="73" viewBox="0 0 217 73" fill="none" xmlns="http://www.w3.org/2000/svg">
  <path d="M174.676 57.9966C154.957 52.6439 148.033 29.957 148.033 14.1084C150.998 20.8987 157.438 28.214 163.71 28.214C169.982 28.214 179.384 25.0813 184.685 36.0576C176.248 28.214 160.046 41.5784 184.771 58.3397C175.14 57.0187 171.022 52.9013 166.562 47.0683C167.591 52.5582 172.395 56.1643 174.676 57.9966Z" fill="#1CBDC3" />
  <path d="M165.583 25.0137C168.875 25.0137 171.543 22.3453 171.543 19.0537C171.543 15.7621 168.875 13.0938 165.583 13.0938C162.291 13.0938 159.623 15.7621 159.623 19.0537C159.623 22.3453 162.291 25.0137 165.583 25.0137Z" fill="#4157A6" />
  <path d="M204.138 24.9127C206.914 24.9127 209.165 22.6622 209.165 19.886C209.165 17.1099 206.914 14.8594 204.138 14.8594C201.362 14.8594 199.111 17.1099 199.111 19.886C199.111 22.6622 201.362 24.9127 204.138 24.9127Z" fill="#1CBDC3" />
  <path d="M195.04 57.9966C212.093 51.1891 216.999 31.3501 216.999 14.1084C215.431 20.3772 209.183 29.607 204.397 29.1369C195.054 28.214 190.717 25.8156 184.691 36.037C194.758 28.6257 209.108 40.549 184.746 58.3912C191.015 56.8231 199.994 50.098 202.89 47.0237C199.758 53.2959 197.328 56.1643 195.04 57.9966Z" fill="#4056A6" />
  <path d="M3.02661 24.2169C2.17876 23.8821 1.43928 23.3206 0.888991 22.5939C0.341831 21.8408 0.0464315 20.9342 0.0449219 20.0034H4.03538C4.05968 20.4988 4.27196 20.9663 4.62897 21.3106C4.99604 21.6208 5.46646 21.7813 5.94654 21.7601C6.41561 21.7857 6.87931 21.6501 7.26069 21.3758C7.41976 21.2495 7.54657 21.0872 7.63068 20.9023C7.71479 20.7174 7.75379 20.5151 7.74448 20.3122C7.74927 20.1369 7.71759 19.9624 7.65144 19.8C7.58528 19.6376 7.4861 19.4907 7.36019 19.3686C7.08596 19.1078 6.76612 18.8996 6.41662 18.7544C5.89743 18.5427 5.3671 18.3595 4.82798 18.2054C3.99397 17.9606 3.17962 17.6532 2.39185 17.2859C1.74936 16.964 1.19297 16.4935 0.7689 15.9134C0.287481 15.2282 0.0462056 14.4031 0.082665 13.5665C0.0539309 12.9217 0.180416 12.2795 0.451489 11.6937C0.722562 11.108 1.1303 10.5959 1.64042 10.2005C2.67663 9.38616 4.02852 8.98014 5.69607 8.98243C7.36362 8.98472 8.73609 9.39074 9.81348 10.2005C10.3274 10.6045 10.7438 11.119 11.0319 11.7059C11.3199 12.2927 11.4723 12.9368 11.4776 13.5905H7.41509C7.41095 13.3673 7.35993 13.1476 7.26535 12.9454C7.17077 12.7432 7.03475 12.5632 6.8661 12.417C6.50196 12.1205 6.0417 11.9679 5.57255 11.9881C5.17694 11.9646 4.78639 12.0867 4.47457 12.3313C4.33428 12.462 4.22438 12.622 4.15265 12.7998C4.08091 12.9777 4.04908 13.1691 4.0594 13.3606C4.05554 13.5989 4.11758 13.8336 4.23867 14.0389C4.35976 14.2441 4.5352 14.4119 4.74563 14.5238C5.44508 14.8975 6.18089 15.1987 6.94159 15.4227C7.7685 15.6929 8.57758 16.015 9.364 16.3869C9.99631 16.7045 10.5479 17.1622 10.9767 17.7251C11.4541 18.3797 11.6959 19.1766 11.6629 19.9862C11.6748 20.8344 11.4426 21.6682 10.9938 22.388C10.52 23.1306 9.84706 23.725 9.05176 24.1036C8.1178 24.5562 7.09059 24.783 6.05291 24.7658C5.01804 24.7814 3.99007 24.5949 3.02661 24.2169Z" fill="#4156A6" />
  <path d="M23.5584 21.8901H17.8111L16.8882 24.611H12.9629L18.5351 9.21191H22.879L28.4478 24.611H24.4779L23.5584 21.8901ZM22.5908 18.9942L20.683 13.3568L18.7993 18.9942H22.5908Z" fill="#4156A6" />
  <path d="M43.4761 9.21191V24.611H39.7259V18.2702H33.8929V24.611H30.1426V9.21191H33.8929V15.2439H39.7259V9.21191H43.4761Z" fill="#4156A6" />
  <path d="M55.7576 21.8901H50.0104L49.0908 24.611H45.1621L50.7343 9.21191H55.0782L60.6504 24.611H56.6806L55.7576 21.8901ZM54.7934 18.9942L52.8857 13.3568L50.9985 18.9942H54.7934Z" fill="#4156A6" />
  <path d="M73.8089 18.0403C74.4188 18.8484 74.7024 19.8565 74.6032 20.8641C74.504 21.8717 74.0294 22.8051 73.2736 23.4787C72.3746 24.2336 71.1165 24.611 69.4993 24.611H62.3281V9.21191H69.2591C70.8237 9.21191 72.0487 9.56989 72.9339 10.2859C73.6576 10.9207 74.1207 11.8009 74.2341 12.7569C74.3475 13.7129 74.1032 14.677 73.5481 15.4635C73.0629 16.0693 72.3989 16.5063 71.6506 16.7125C72.5076 16.8779 73.2748 17.35 73.8089 18.0403ZM66.0887 15.4429H68.5454C69.0498 15.4757 69.5498 15.3313 69.9591 15.0346C70.1276 14.8869 70.2599 14.7024 70.3456 14.4953C70.4313 14.2882 70.4681 14.0642 70.4532 13.8406C70.4679 13.615 70.4311 13.3889 70.3455 13.1797C70.2598 12.9704 70.1277 12.7834 69.9591 12.6328C69.5522 12.3307 69.051 12.1835 68.5454 12.2176H66.0887V15.4429ZM70.3125 21.1558C70.4873 21.0025 70.6246 20.8111 70.7138 20.5964C70.8031 20.3816 70.8418 20.1493 70.8272 19.9172C70.8398 19.678 70.7979 19.4391 70.7046 19.2186C70.6112 18.998 70.4689 18.8016 70.2885 18.6442C69.8682 18.3156 69.3422 18.1521 68.8096 18.1844H66.0887V21.5847H68.8542C69.3755 21.6166 69.8915 21.4649 70.3125 21.1558Z" fill="#4156A6" />
  <path d="M86.3772 21.8901H80.63L79.7104 24.611H75.7852L81.354 9.21191H85.6978L91.2701 24.611H87.3036L86.3772 21.8901ZM85.413 18.9942L83.5053 13.3568L81.6182 18.9942H85.413Z" fill="#4156A6" />
  <path d="M104.035 9.21191V12.2176H99.9549V24.611H96.2047V12.2176H92.125V9.21191H104.035Z" fill="#4156A6" />
  <path d="M9.4152 44.989L4.23412 38.1884V44.989H0.494141V29.5898H4.23412V36.3458L9.38089 29.5898H13.79L7.82313 37.1384L13.9993 44.9924L9.4152 44.989Z" fill="#1CBDC3" />
  <path d="M19.5232 32.5956V35.7076H24.543V38.6036H19.5232V41.9833H25.1984V44.989H15.7695V29.5898H25.1984V32.5956H19.5232Z" fill="#1CBDC3" />
  <path d="M39.1086 38.4183C39.7202 39.2252 40.0054 40.233 39.9075 41.2408C39.8095 42.2486 39.3357 43.1825 38.5802 43.8567C37.6812 44.6115 36.4232 44.989 34.8059 44.989H27.6348V29.5898H34.5657C36.1304 29.5898 37.3553 29.9478 38.2405 30.6638C38.9622 31.2999 39.4239 32.1799 39.5373 33.1352C39.6506 34.0906 39.4076 35.0541 38.8547 35.8415C38.3695 36.4472 37.7055 36.8843 36.9573 37.0904C37.8114 37.2583 38.5757 37.7301 39.1086 38.4183ZM31.3747 35.8174H33.8315C34.3355 35.8512 34.8354 35.708 35.2451 35.4126C35.4137 35.2649 35.546 35.0803 35.6316 34.8732C35.7173 34.6662 35.7541 34.4421 35.7392 34.2185C35.7539 33.9929 35.7171 33.7669 35.6315 33.5576C35.5459 33.3483 35.4138 33.1613 35.2451 33.0107C34.8383 32.7087 34.3371 32.5614 33.8315 32.5956H31.3747V35.8174ZM35.5951 41.5338C35.7709 41.3811 35.9092 41.1899 35.9991 40.9751C36.0889 40.7602 36.128 40.5275 36.1132 40.2951C36.1251 40.0561 36.0828 39.8174 35.9896 39.597C35.8963 39.3765 35.7544 39.18 35.5745 39.0221C35.1542 38.6935 34.6282 38.53 34.0957 38.5624H31.3747V41.9592H34.1368C34.6624 41.9966 35.1842 41.8458 35.6088 41.5338H35.5951Z" fill="#1CBDC3" />
  <path d="M51.6775 42.2641H45.9303L45.0107 44.9851H41.082L46.6543 29.5859H50.9981L56.5704 44.9851H52.6005L51.6775 42.2641ZM50.7133 39.3682L48.8056 33.7308L46.9185 39.3682H50.7133Z" fill="#1CBDC3" />
  <path d="M62.0081 29.5898V44.989H58.2578V29.5898H62.0081Z" fill="#1CBDC3" />
  <path d="M73.653 44.989L68.4788 38.1884V44.989H64.7285V29.5898H68.4788V36.3458L73.6256 29.5898H78.0381L72.0712 37.1384L78.2474 44.9924L73.653 44.989Z" fill="#1CBDC3" />
  <path d="M89.6013 42.2641H83.8713L82.9517 44.9851H79.0059L84.5781 29.5859H88.922L94.5079 44.9885H90.5209L89.6013 42.2641ZM88.6372 39.3682L86.726 33.7308L84.8423 39.3682H88.6372Z" fill="#1CBDC3" />
  <path d="M109.948 44.989H106.204L99.9319 35.4915V44.989H96.1816V29.5898H99.9319L106.204 39.1319V29.5898H109.948V44.989Z" fill="#1CBDC3" />
  <path d="M0.624916 60.2585C0.424071 60.0775 0.264398 59.8554 0.156671 59.6074C0.0489432 59.3594 -0.00433244 59.0912 0.000441574 58.8208C-0.00542458 58.5458 0.047215 58.2726 0.154872 58.0195C0.26253 57.7663 0.422747 57.5389 0.624916 57.3523C0.841432 57.1521 1.09534 56.9966 1.37207 56.8947C1.64881 56.7929 1.94293 56.7467 2.23757 56.7587C2.52896 56.7479 2.81962 56.7948 3.09284 56.8966C3.36606 56.9985 3.61645 57.1533 3.82964 57.3523C4.0318 57.5389 4.19202 57.7663 4.29968 58.0195C4.40734 58.2726 4.45998 58.5458 4.45411 58.8208C4.45888 59.0912 4.40561 59.3594 4.29788 59.6074C4.19015 59.8554 4.03048 60.0775 3.82964 60.2585C3.39492 60.6521 2.82359 60.8602 2.23757 60.8384C1.64498 60.8627 1.06632 60.6546 0.624916 60.2585Z" fill="#1CBDC3" />
  <path d="M8.42331 60.206C7.7186 59.8101 7.13952 59.2239 6.75233 58.5144C6.34644 57.7222 6.13477 56.8449 6.13477 55.9548C6.13477 55.0647 6.34644 54.1873 6.75233 53.3951C7.14734 52.6845 7.73328 52.0986 8.4439 51.7035C9.17975 51.3014 10.0073 51.0969 10.8457 51.11C11.6839 51.0996 12.5107 51.3039 13.2475 51.7035C13.9611 52.0946 14.548 52.6815 14.9391 53.3951C15.3439 54.1864 15.5549 55.0625 15.5549 55.9513C15.5549 56.8402 15.3439 57.7163 14.9391 58.5076C14.5414 59.2261 13.946 59.8155 13.2235 60.206C12.4858 60.6032 11.6596 60.8074 10.8217 60.7996C9.98415 60.8142 9.15734 60.6096 8.42331 60.206ZM12.5407 59.3242C13.0812 59.031 13.5265 58.5893 13.824 58.0512C14.1706 57.4083 14.3399 56.6847 14.3146 55.9548C14.3375 55.2263 14.172 54.5042 13.8343 53.8583C13.5403 53.3199 13.0971 52.8779 12.5579 52.5854C12.0283 52.3088 11.4397 52.1643 10.8423 52.1643C10.2448 52.1643 9.65626 52.3088 9.1267 52.5854C8.58811 52.8764 8.14672 53.3189 7.85716 53.8583C7.54551 54.5133 7.38381 55.2295 7.38381 55.9548C7.38381 56.6801 7.54551 57.3963 7.85716 58.0512C8.14477 58.5885 8.58223 59.0308 9.1164 59.3242C9.64359 59.6075 10.2335 59.7538 10.832 59.7497C11.4267 59.7501 12.0124 59.6039 12.5373 59.3242H12.5407Z" fill="#4056A6" />
  <path d="M20.1803 51.5601C20.7946 51.2206 21.4894 51.0534 22.1909 51.0763V52.3355H21.8478C21.0827 52.2974 20.3314 52.5498 19.7445 53.0423C19.2161 53.5124 18.9519 54.3016 18.9519 55.403V60.663H17.7441V51.2478H18.9519V52.9223C19.2052 52.3486 19.6357 51.8712 20.1803 51.5601Z" fill="#4056A6" />
  <path d="M30.2589 51.7318C30.8748 52.1032 31.3668 52.6488 31.6726 53.2998V51.2411H32.8769V60.8964C32.8925 61.6971 32.6998 62.4881 32.3176 63.1919C31.9573 63.8457 31.415 64.3809 30.7565 64.7325C30.0568 65.1045 29.2739 65.2923 28.4816 65.278C27.4119 65.3187 26.3573 65.0157 25.4724 64.4134C24.6855 63.8595 24.1491 63.0172 23.9799 62.0699H25.1705C25.3692 62.7141 25.7867 63.2688 26.3508 63.6379C26.9853 64.0447 27.7283 64.2493 28.4816 64.2247C29.0509 64.2332 29.6133 64.1 30.1183 63.8369C30.6044 63.5779 31.0013 63.1786 31.2574 62.6909C31.5442 62.1371 31.687 61.5199 31.6726 60.8964V58.5701C31.3586 59.226 30.8648 59.7793 30.2486 60.1656C29.5581 60.5961 28.7564 60.8145 27.9429 60.7935C27.1291 60.8076 26.327 60.5987 25.6234 60.1896C24.9364 59.7826 24.3803 59.1872 24.0211 58.474C23.6242 57.6826 23.4264 56.8063 23.4446 55.9212C23.4256 55.0393 23.6235 54.1662 24.0211 53.3787C24.3824 52.6732 24.9385 52.0862 25.6234 51.6871C26.33 51.2865 27.1307 51.0816 27.9429 51.0935C28.7604 51.078 29.5648 51.2997 30.2589 51.7318ZM31.2059 53.9551C30.9147 53.404 30.4765 52.9444 29.9398 52.6273C29.4029 52.317 28.7929 52.1559 28.1728 52.1606C27.5456 52.1508 26.9268 52.3058 26.3783 52.6101C25.844 52.914 25.41 53.3671 25.1293 53.914C24.8095 54.5398 24.6514 55.2358 24.6695 55.9384C24.6546 56.6406 24.8125 57.3358 25.1293 57.9628C25.4063 58.5183 25.8407 58.9801 26.3783 59.2906C26.9246 59.6015 27.5443 59.7603 28.1728 59.7504C28.7929 59.7551 29.4029 59.594 29.9398 59.2838C30.4765 58.9666 30.9147 58.507 31.2059 57.9559C31.5128 57.3337 31.6724 56.6493 31.6724 55.9555C31.6724 55.2618 31.5128 54.5773 31.2059 53.9551Z" fill="#4056A6" />
  <path d="M132.357 0H130.789V72.1027H132.357V0Z" fill="#A3B4D8" />
</svg>
