<svg width="51" height="33" viewBox="0 0 51 33" fill="none" xmlns="http://www.w3.org/2000/svg">
  <path d="M19.656 32.7143C5.47111 28.8645 0.490234 12.5473 0.490234 1.14844C2.62278 6.03225 7.25563 11.2936 11.7675 11.2936C16.2794 11.2936 23.0424 9.04052 26.8558 16.9351C20.7864 11.2936 9.13148 20.9058 26.9175 32.9611C19.9892 32.011 17.0273 29.0496 13.8186 24.8543C14.5591 28.8028 18.0146 31.3965 19.656 32.7143Z" fill="#1CBDC3" />
  <path d="M13.1154 8.99118C15.4832 8.99118 17.4027 7.072 17.4027 4.70457C17.4027 2.33715 15.4832 0.417969 13.1154 0.417969C10.7476 0.417969 8.82812 2.33715 8.82812 4.70457C8.82812 7.072 10.7476 8.99118 13.1154 8.99118Z" fill="#4157A6" />
  <path d="M40.8503 8.92017C42.8474 8.92017 44.4663 7.30152 44.4663 5.30481C44.4663 3.3081 42.8474 1.68945 40.8503 1.68945C38.8533 1.68945 37.2344 3.3081 37.2344 5.30481C37.2344 7.30152 38.8533 8.92017 40.8503 8.92017Z" fill="#1CBDC3" />
  <path d="M34.3055 32.7143C46.5725 27.8182 50.1021 13.5492 50.1021 1.14844C48.9741 5.65715 44.4795 12.2956 41.0363 11.9575C34.3154 11.2936 31.1955 9.56863 26.8613 16.9203C34.1031 11.5898 44.4252 20.1655 26.9008 32.9981C31.4103 31.8703 37.8696 27.0334 39.9528 24.8222C37.6993 29.3334 35.9518 31.3965 34.3055 32.7143Z" fill="#4056A6" />
</svg>  