<?xml version="1.0" standalone="no"?>
<!DOCTYPE svg PUBLIC "-//W3C//DTD SVG 20010904//EN"
 "http://www.w3.org/TR/2001/REC-SVG-20010904/DTD/svg10.dtd">
<svg version="1.0" xmlns="http://www.w3.org/2000/svg"
 width="180.000000pt" height="180.000000pt" viewBox="0 0 180.000000 180.000000"
 preserveAspectRatio="xMidYMid meet">
<metadata>
Created by potrace 1.11, written by Peter Selinger 2001-2013
</metadata>
<g transform="translate(0.000000,180.000000) scale(0.100000,-0.100000)"
fill="#000000" stroke="none">
<path d="M444 1347 c-87 -80 -36 -219 82 -221 50 -1 90 24 118 75 26 48 15
102 -29 146 -29 29 -40 33 -84 33 -44 0 -56 -5 -87 -33z"/>
<path d="M1318 1324 c-35 -18 -48 -43 -48 -89 0 -68 56 -114 123 -101 60 11
96 74 77 132 -22 66 -90 92 -152 58z"/>
<path d="M150 1302 c0 -17 5 -65 11 -108 37 -268 145 -496 304 -642 55 -50
191 -132 220 -132 4 0 -15 24 -42 53 -51 54 -93 123 -93 153 0 9 29 -15 69
-58 77 -82 149 -127 246 -152 l60 -15 -45 36 c-83 67 -158 152 -189 214 -56
113 -38 213 49 263 45 27 126 27 166 1 l29 -18 -19 29 c-33 51 -58 74 -115
102 -54 26 -61 27 -205 25 -140 -3 -153 -1 -202 21 -70 32 -137 95 -196 185
-44 68 -48 71 -48 43z"/>
<path d="M1608 1252 c-44 -91 -114 -175 -170 -203 -35 -18 -46 -19 -114 -9
-182 25 -255 6 -325 -82 -45 -57 -50 -76 -14 -52 13 9 50 18 82 21 70 5 116
-15 151 -67 64 -94 -16 -258 -202 -413 -66 -54 -53 -55 49 -4 69 34 151 88
214 141 24 20 46 35 48 33 7 -7 -56 -109 -99 -160 l-41 -49 51 26 c190 96 327
310 383 601 18 92 37 295 28 295 -2 -1 -21 -35 -41 -78z"/>
</g>
</svg>
